<?xml version="1.0" encoding="UTF-8"?>
<svg xmlns="http://www.w3.org/2000/svg" id="Layer_1" data-name="Layer 1" viewBox="0 0 24 24">
  <path d="m0,18h15v1H0v-1Zm0,4h12v-1H0v1Zm12-10H0v1h12v-1ZM0,10h15v-1H0v1Zm24,10.5c0,1.93-1.57,3.5-3.5,3.5s-3.5-1.57-3.5-3.5,1.57-3.5,3.5-3.5,3.5,1.57,3.5,3.5Zm-1,0c0-1.378-1.121-2.5-2.5-2.5s-2.5,1.122-2.5,2.5,1.121,2.5,2.5,2.5,2.5-1.122,2.5-2.5Zm1-9c0,1.93-1.57,3.5-3.5,3.5s-3.5-1.57-3.5-3.5,1.57-3.5,3.5-3.5,3.5,1.57,3.5,3.5Zm-1,0c0-1.378-1.121-2.5-2.5-2.5s-2.5,1.122-2.5,2.5,1.121,2.5,2.5,2.5,2.5-1.122,2.5-2.5Zm1-9v3.5H0v-3.5C0,1.122,1.121,0,2.5,0h19c1.379,0,2.5,1.122,2.5,2.5Zm-1,0c0-.827-.673-1.5-1.5-1.5H2.5c-.827,0-1.5.673-1.5,1.5v2.5h22v-2.5Z"/>
</svg>
